<?xml version="1.0" encoding="UTF-8" standalone="no"?>
<!-- Created with Inkscape (http://www.inkscape.org/) -->

<svg
   xmlns:dc="http://purl.org/dc/elements/1.1/"
   xmlns:cc="http://creativecommons.org/ns#"
   xmlns:rdf="http://www.w3.org/1999/02/22-rdf-syntax-ns#"
   xmlns:svg="http://www.w3.org/2000/svg"
   xmlns="http://www.w3.org/2000/svg"
   xmlns:sodipodi="http://sodipodi.sourceforge.net/DTD/sodipodi-0.dtd"
   xmlns:inkscape="http://www.inkscape.org/namespaces/inkscape"
   width="765"
   height="990"
   id="svg2"
   version="1.1"
   inkscape:version="0.48.2 r9819"
   sodipodi:docname="Markers1.pdf">
  <defs
     id="defs4" />
  <sodipodi:namedview
     id="base"
     pagecolor="#ffffff"
     bordercolor="#666666"
     borderopacity="1.0"
     inkscape:pageopacity="0.0"
     inkscape:pageshadow="2"
     inkscape:zoom="1"
     inkscape:cx="325.39353"
     inkscape:cy="470.47672"
     inkscape:document-units="mm"
     inkscape:current-layer="layer1"
     showgrid="false"
     units="mm"
     showguides="true"
     inkscape:guide-bbox="true"
     inkscape:window-width="1825"
     inkscape:window-height="1178"
     inkscape:window-x="-8"
     inkscape:window-y="-8"
     inkscape:window-maximized="1">
    <sodipodi:guide
       orientation="1,0"
       position="88.571429,288.57143"
       id="guide4099" />
    <sodipodi:guide
       orientation="0,1"
       position="64.144687,88.640886"
       id="guide4101" />
    <sodipodi:guide
       orientation="0,1"
       position="132.85714,141.78571"
       id="guide4103" />
    <sodipodi:guide
       orientation="1,0"
       position="141.67389,189.4036"
       id="guide4105" />
    <sodipodi:guide
       orientation="1,0"
       position="194.87421,434.14147"
       id="guide4107" />
    <sodipodi:guide
       orientation="0,1"
       position="182.58507,194.95944"
       id="guide4109" />
    <sodipodi:guide
       orientation="0,1"
       position="168.69548,247.99245"
       id="guide4111" />
    <sodipodi:guide
       orientation="1,0"
       position="247.99245,266.93281"
       id="guide4113" />
    <sodipodi:guide
       orientation="1,0"
       position="301.278,162.12948"
       id="guide4115" />
    <sodipodi:guide
       orientation="1,0"
       position="354.31101,162.12948"
       id="guide4117" />
    <sodipodi:guide
       orientation="1,0"
       position="407.59655,247.99245"
       id="guide4907" />
    <sodipodi:guide
       orientation="1,0"
       position="460.62956,254.81098"
       id="guide4909" />
    <sodipodi:guide
       orientation="1,0"
       position="513.78884,319.20821"
       id="guide4911" />
    <sodipodi:guide
       orientation="1,0"
       position="566.94812,269.96327"
       id="guide4913" />
    <sodipodi:guide
       orientation="0,1"
       position="88.571429,301.278"
       id="guide4937" />
    <sodipodi:guide
       orientation="0,1"
       position="392.97459,407.47028"
       id="guide5023" />
    <sodipodi:guide
       orientation="0,1"
       position="407.59655,460.68007"
       id="guide5025" />
    <sodipodi:guide
       orientation="0,1"
       position="343.65389,354.2605"
       id="guide5027" />
    <sodipodi:guide
       orientation="1,0"
       position="318.90516,471.64022"
       id="guide5029" />
    <sodipodi:guide
       orientation="1,0"
       position="336.58283,492.49987"
       id="guide5031" />
    <sodipodi:guide
       orientation="0,1"
       position="235.113,478.35774"
       id="guide5033" />
    <sodipodi:guide
       orientation="0,1"
       position="380.42345,283.54982"
       id="guide5035" />
    <sodipodi:guide
       orientation="0,1"
       position="370.52395,265.5186"
       id="guide5037" />
    <sodipodi:guide
       orientation="0,1"
       position="336.58283,70.5"
       id="guide5039" />
    <sodipodi:guide
       orientation="1,0"
       position="70.710678,301.278"
       id="guide5041" />
    <sodipodi:guide
       orientation="1,0"
       position="584.75,478.35774"
       id="guide5043" />
    <sodipodi:guide
       orientation="0,1"
       position="513.78884,708.52099"
       id="guide5057" />
    <sodipodi:guide
       orientation="0,1"
       position="-311.5,619.75"
       id="guide5059" />
    <sodipodi:guide
       orientation="0,1"
       position="275.77164,796.90934"
       id="guide5061" />
    <sodipodi:guide
       orientation="0,1"
       position="436,886"
       id="guide5063" />
    <sodipodi:guide
       orientation="0,1"
       position="460.62956,531"
       id="guide5065" />
    <sodipodi:guide
       orientation="1,0"
       position="209.06054,429.711"
       id="guide3085" />
    <sodipodi:guide
       orientation="1,0"
       position="446,489"
       id="guide3087" />
  </sodipodi:namedview>
  <metadata
     id="metadata7">
    <rdf:RDF>
      <cc:Work
         rdf:about="">
        <dc:format>image/svg+xml</dc:format>
        <dc:type
           rdf:resource="http://purl.org/dc/dcmitype/StillImage" />
        <dc:title></dc:title>
      </cc:Work>
    </rdf:RDF>
  </metadata>
  <g
     inkscape:label="Layer 1"
     inkscape:groupmode="layer"
     id="layer1"
     transform="translate(0,-62.362323)">
    <path
       sodipodi:type="arc"
       style="fill:#000000;fill-opacity:1;stroke:none"
       id="path4119"
       sodipodi:cx="141.76544"
       sodipodi:cy="795.1109"
       sodipodi:rx="53.194004"
       sodipodi:ry="53.103371"
       d="m 194.95945,795.1109 c 0,29.32818 -23.81577,53.10337 -53.19401,53.10337 -29.37824,0 -53.194002,-23.77519 -53.194002,-53.10337 0,-29.32818 23.815762,-53.10337 53.194002,-53.10337 29.37824,0 53.19401,23.77519 53.19401,53.10337 z"
       transform="translate(0,62.362323)" />
    <path
       transform="translate(-5.9533691e-6,115.46571)"
       d="m 194.95945,795.1109 c 0,29.32818 -23.81577,53.10337 -53.19401,53.10337 -29.37824,0 -53.194002,-23.77519 -53.194002,-53.10337 0,-29.32818 23.815762,-53.10337 53.194002,-53.10337 29.37824,0 53.19401,23.77519 53.19401,53.10337 z"
       sodipodi:ry="53.103371"
       sodipodi:rx="53.194004"
       sodipodi:cy="795.1109"
       sodipodi:cx="141.76544"
       id="path4889"
       style="fill:#000000;fill-opacity:1;stroke:none"
       sodipodi:type="arc" />
    <rect
       style="fill:#ffffff;fill-opacity:1;stroke:none;stroke-opacity:1"
       id="rect4891"
       width="53.102463"
       height="53.173729"
       x="88.571426"
       y="795.04059"
       transform="translate(0,62.362323)" />
    <path
       transform="translate(67.31629,115.39535)"
       d="m 194.95945,795.1109 a 53.194004,53.103371 0 1 1 -106.388012,0 53.194004,53.103371 0 1 1 106.388012,0 z"
       sodipodi:ry="53.103371"
       sodipodi:rx="53.194004"
       sodipodi:cy="795.1109"
       sodipodi:cx="141.76544"
       id="path4893"
       style="fill:#000000;fill-opacity:1;stroke:none"
       sodipodi:type="arc" />
    <rect
       style="fill:#ffffff;fill-opacity:1;stroke:none"
       id="rect4895"
       width="67.38665"
       height="53.144825"
       x="141.67389"
       y="910.5766" />
    <rect
       style="fill:#000000;fill-opacity:1;stroke:none"
       id="rect4897"
       width="67.38665"
       height="53.173729"
       x="141.67389"
       y="857.40289" />
    <rect
       y="804.22913"
       x="141.6796"
       height="53.173729"
       width="106.31285"
       id="rect4899"
       style="fill:#ffffff;fill-opacity:1;stroke:none" />
    <rect
       style="fill:#ffffff;fill-opacity:1;stroke:none"
       id="rect4901"
       width="53.217461"
       height="53.173729"
       x="209.06055"
       y="857.40289" />
    <text
       xml:space="preserve"
       style="font-size:40px;font-style:normal;font-weight:normal;line-height:125%;letter-spacing:0px;word-spacing:0px;fill:#a8a8a8;fill-opacity:1;stroke:none;font-family:Sans"
       x="160"
       y="842.71948"
       id="text4903"
       sodipodi:linespacing="125%"><tspan
         sodipodi:role="line"
         id="tspan4905"
         x="160"
         y="842.71948"
         style="font-size:32px">SR1</tspan></text>
    <path
       transform="translate(-5.7763673e-6,-150.14857)"
       d="m 194.95945,795.1109 a 53.194004,53.103371 0 1 1 -106.388012,0 53.194004,53.103371 0 1 1 106.388012,0 z"
       sodipodi:ry="53.103371"
       sodipodi:rx="53.194004"
       sodipodi:cy="795.1109"
       sodipodi:cx="141.76544"
       id="path4915"
       style="fill:#000000;fill-opacity:1;stroke:none"
       sodipodi:type="arc" />
    <path
       sodipodi:type="arc"
       style="fill:#000000;fill-opacity:1;stroke:none"
       id="path4917"
       sodipodi:cx="141.76544"
       sodipodi:cy="795.1109"
       sodipodi:rx="53.194004"
       sodipodi:ry="53.103371"
       d="m 194.95945,795.1109 a 53.194004,53.103371 0 1 1 -106.388012,0 53.194004,53.103371 0 1 1 106.388012,0 z"
       transform="translate(-5.7763673e-6,-97.045185)" />
    <rect
       y="698.0368"
       x="88.697678"
       height="53.173729"
       width="53.102463"
       id="rect4919"
       style="fill:#ffffff;fill-opacity:1;stroke:none" />
    <path
       sodipodi:type="arc"
       style="fill:#000000;fill-opacity:1;stroke:none"
       id="path4921"
       sodipodi:cx="141.76544"
       sodipodi:cy="795.1109"
       sodipodi:rx="53.194004"
       sodipodi:ry="53.103371"
       d="m 194.95945,795.1109 a 53.194004,53.103371 0 1 1 -106.388012,0 53.194004,53.103371 0 1 1 106.388012,0 z"
       transform="translate(67.295098,-97.115487)" />
    <rect
       y="644.89203"
       x="141.80017"
       height="53.17218"
       width="67.260368"
       id="rect4923"
       style="fill:#ffffff;fill-opacity:1;stroke:none" />
    <rect
       y="698.06573"
       x="141.80017"
       height="53.173729"
       width="67.260368"
       id="rect4925"
       style="fill:#000000;fill-opacity:1;stroke:none" />
    <rect
       style="fill:#ffffff;fill-opacity:1;stroke:none"
       id="rect4927"
       width="53.102463"
       height="53.173729"
       x="88.697678"
       y="591.71826" />
    <rect
       y="698.10181"
       x="209.06055"
       height="53.173729"
       width="53.102463"
       id="rect4929"
       style="fill:#ffffff;fill-opacity:1;stroke:none" />
    <text
       sodipodi:linespacing="125%"
       id="text4931"
       y="630.20856"
       x="194"
       style="font-size:40px;font-style:normal;font-weight:normal;line-height:125%;letter-spacing:0px;word-spacing:0px;fill:#a8a8a8;fill-opacity:1;stroke:none;font-family:Sans"
       xml:space="preserve"><tspan
         y="630.20856"
         x="194"
         id="tspan4933"
         sodipodi:role="line"
         style="font-size:32px">SR2</tspan></text>
    <rect
       y="644.89203"
       x="88.697678"
       height="53.173729"
       width="53.102463"
       id="rect4935"
       style="fill:#000000;fill-opacity:1;stroke:none" />
    <path
       sodipodi:type="arc"
       style="fill:#000000;fill-opacity:1;stroke:none"
       id="path4983"
       sodipodi:cx="141.76544"
       sodipodi:cy="795.1109"
       sodipodi:rx="53.194004"
       sodipodi:ry="53.103371"
       d="m 194.95945,795.1109 a 53.194004,53.103371 0 1 1 -106.388012,0 53.194004,53.103371 0 1 1 106.388012,0 z"
       transform="translate(304.29638,115.46571)" />
    <rect
       y="857.40283"
       x="392.86783"
       height="53.234695"
       width="53.102463"
       id="rect4985"
       style="fill:#ffffff;fill-opacity:1;stroke:none" />
    <path
       transform="matrix(0.99927026,0,0,1,372.25721,62.362299)"
       d="m 194.95945,795.1109 a 53.194004,53.103371 0 1 1 -106.388012,0 53.194004,53.103371 0 1 1 106.388012,0 z"
       sodipodi:ry="53.103371"
       sodipodi:rx="53.194004"
       sodipodi:cy="795.1109"
       sodipodi:cx="141.76544"
       id="path4981"
       style="fill:#000000;fill-opacity:1;stroke:none"
       sodipodi:type="arc" />
    <path
       sodipodi:type="arc"
       style="fill:#000000;fill-opacity:1;stroke:none"
       id="path4987"
       sodipodi:cx="141.76544"
       sodipodi:cy="795.1109"
       sodipodi:rx="53.194004"
       sodipodi:ry="53.103371"
       d="m 194.95945,795.1109 a 53.194004,53.103371 0 1 1 -106.388012,0 53.194004,53.103371 0 1 1 106.388012,0 z"
       transform="translate(372.0234,115.39535)" />
    <rect
       y="910.63751"
       x="446"
       height="53.083836"
       width="67.788834"
       id="rect4989"
       style="fill:#ffffff;fill-opacity:1;stroke:none" />
    <rect
       y="857.42773"
       x="446"
       height="53.148811"
       width="67.788834"
       id="rect4991"
       style="fill:#000000;fill-opacity:1;stroke:none" />
    <rect
       style="fill:#ffffff;fill-opacity:1;stroke:none"
       id="rect4993"
       width="106.31856"
       height="53.198685"
       x="407.47028"
       y="804.22906" />
    <rect
       y="857.42773"
       x="513.78882"
       height="53.209778"
       width="53.285553"
       id="rect4995"
       style="fill:#ffffff;fill-opacity:1;stroke:none" />
    <text
       sodipodi:linespacing="125%"
       id="text4997"
       y="842.71942"
       x="423.79639"
       style="font-size:40px;font-style:normal;font-weight:normal;line-height:125%;letter-spacing:0px;word-spacing:0px;fill:#a8a8a8;fill-opacity:1;stroke:none;font-family:Sans"
       xml:space="preserve"><tspan
         y="842.71942"
         x="423.79639"
         id="tspan4999"
         sodipodi:role="line"
         style="font-size:32px">PR1</tspan></text>
    <path
       sodipodi:type="arc"
       style="fill:#000000;fill-opacity:1;stroke:none"
       id="path5001"
       sodipodi:cx="141.76544"
       sodipodi:cy="795.1109"
       sodipodi:rx="53.194004"
       sodipodi:ry="53.103371"
       d="m 194.95945,795.1109 c 0,29.32818 -23.81577,53.10337 -53.19401,53.10337 -29.37824,0 -53.194002,-23.77519 -53.194002,-53.10337 0,-29.32818 23.815762,-53.10337 53.194002,-53.10337 29.37824,0 53.19401,23.77519 53.19401,53.10337 z"
       transform="translate(371.98867,-150.29969)" />
    <path
       transform="translate(304.17139,-97.070036)"
       d="m 194.95945,795.1109 a 53.194004,53.103371 0 1 1 -106.388012,0 53.194004,53.103371 0 1 1 106.388012,0 z"
       sodipodi:ry="53.103371"
       sodipodi:rx="53.194004"
       sodipodi:cy="795.1109"
       sodipodi:cx="141.76544"
       id="path5003"
       style="fill:#000000;fill-opacity:1;stroke:none"
       sodipodi:type="arc" />
    <rect
       style="fill:#ffffff;fill-opacity:1;stroke:none"
       id="rect5005"
       width="53.10247"
       height="53.08387"
       x="392.86908"
       y="698.10181" />
    <path
       transform="translate(372.0234,-97.140396)"
       d="m 194.95945,795.1109 c 0,29.32818 -23.81577,53.10337 -53.19401,53.10337 -29.37824,0 -53.194002,-23.77519 -53.194002,-53.10337 0,-29.32818 23.815762,-53.10337 53.194002,-53.10337 29.37824,0 53.19401,23.77519 53.19401,53.10337 z"
       sodipodi:ry="53.103371"
       sodipodi:rx="53.194004"
       sodipodi:cy="795.1109"
       sodipodi:cx="141.76544"
       id="path5007"
       style="fill:#000000;fill-opacity:1;stroke:none"
       sodipodi:type="arc" />
    <rect
       style="fill:#ffffff;fill-opacity:1;stroke:none"
       id="rect5009"
       width="67.788849"
       height="53.209793"
       x="446"
       y="644.89203" />
    <rect
       style="fill:#000000;fill-opacity:1;stroke:none"
       id="rect5011"
       width="67.788078"
       height="52.982395"
       x="446"
       y="698.10193" />
    <rect
       y="591.6554"
       x="513.78882"
       height="53.236649"
       width="53.159264"
       id="rect5013"
       style="fill:#ffffff;fill-opacity:1;stroke:none" />
    <rect
       style="fill:#ffffff;fill-opacity:1;stroke:none"
       id="rect5015"
       width="53.10244"
       height="53.11274"
       x="513.78882"
       y="698.10181" />
    <text
       xml:space="preserve"
       style="font-size:40px;font-style:normal;font-weight:normal;line-height:125%;letter-spacing:0px;word-spacing:0px;fill:#a8a8a8;fill-opacity:1;stroke:none;font-family:Sans"
       x="391.59656"
       y="635.18372"
       id="text5017"
       sodipodi:linespacing="125%"><tspan
         sodipodi:role="line"
         id="tspan5019"
         x="391.59656"
         y="635.18372"
         style="font-size:32px">SR3</tspan></text>
    <rect
       style="fill:#000000;fill-opacity:1;stroke:none"
       id="rect5021"
       width="53.159264"
       height="53.148811"
       x="513.78882"
       y="644.89203" />
    <rect
       style="fill:none;stroke:#aaaaaa;stroke-width:0.91618639;stroke-linejoin:miter;stroke-miterlimit:4;stroke-opacity:1;stroke-dasharray:none"
       id="rect5045"
       width="208.66229"
       height="194.80795"
       x="376.03928"
       y="786.54034"
       ry="70.887444" />
    <rect
       ry="70.887444"
       y="574.00458"
       x="377.25638"
       height="194.80795"
       width="207.6488"
       id="rect5049"
       style="fill:none;stroke:#aaaaaa;stroke-width:0.91395867;stroke-linejoin:miter;stroke-miterlimit:4;stroke-opacity:1;stroke-dasharray:none" />
    <rect
       ry="70.887444"
       y="787.00458"
       x="70.710678"
       height="194.80795"
       width="208.24316"
       id="rect5051"
       style="fill:none;stroke:#aaaaaa;stroke-width:0.9152658;stroke-linejoin:miter;stroke-miterlimit:4;stroke-opacity:1;stroke-dasharray:none" />
    <rect
       style="fill:none;stroke:#aaaaaa;stroke-width:0.91066563;stroke-linejoin:miter;stroke-miterlimit:4;stroke-opacity:1;stroke-dasharray:none"
       id="rect5053"
       width="206.15515"
       height="194.80795"
       x="70.914291"
       y="574.49371"
       ry="70.887444" />
    <path
       transform="translate(-318.91407,62.362323)"
       d="m 584.74998,281.479 c 0,39.19077 -31.7704,70.96116 -70.96116,70.96116 -39.19077,0 -70.96116,-31.77039 -70.96116,-70.96116 0,-39.19076 31.77039,-70.96115 70.96116,-70.96115 39.19076,0 70.96116,31.77039 70.96116,70.96115 z"
       sodipodi:ry="70.961159"
       sodipodi:rx="70.961159"
       sodipodi:cy="281.479"
       sodipodi:cx="513.78882"
       id="path5092"
       style="fill:#000000;fill-opacity:1;stroke:none"
       sodipodi:type="arc" />
    <rect
       ry="0"
       rx="20.29637"
       y="272.69638"
       x="194.87476"
       height="71.144966"
       width="70.961182"
       id="rect5094"
       style="fill:#ffffff;fill-opacity:1;stroke:none" />
    <rect
       style="fill:#ffffff;fill-opacity:1;stroke:none"
       id="rect5096"
       width="70.969879"
       height="70.968185"
       x="123.9049"
       y="343.84134"
       rx="20.298857"
       ry="0" />
    <path
       sodipodi:type="arc"
       style="fill:#000000;fill-opacity:1;stroke:none"
       id="path5098"
       sodipodi:cx="513.78882"
       sodipodi:cy="281.479"
       sodipodi:rx="70.961159"
       sodipodi:ry="70.961159"
       d="m 584.74998,281.479 c 0,39.19077 -31.7704,70.96116 -70.96116,70.96116 -39.19077,0 -70.96116,-31.77039 -70.96116,-70.96116 0,-39.19076 31.77039,-70.96115 70.96116,-70.96115 39.19076,0 70.96116,31.77039 70.96116,70.96115 z"
       transform="translate(-159.41802,-43.637677)" />
    <rect
       style="fill:#ffffff;fill-opacity:1;stroke:none"
       id="rect5100"
       width="70.961182"
       height="71.144966"
       x="283.34982"
       y="166.69435"
       rx="20.29637"
       ry="0" />
    <rect
       ry="0"
       rx="20.298857"
       y="237.84134"
       x="354.31653"
       height="70.968185"
       width="70.969879"
       id="rect5102"
       style="fill:#ffffff;fill-opacity:1;stroke:none" />
    <path
       transform="translate(-159.47708,174.36232)"
       d="m 584.74998,281.479 c 0,39.19077 -31.7704,70.96116 -70.96116,70.96116 -39.19077,0 -70.96116,-31.77039 -70.96116,-70.96116 0,-39.19076 31.77039,-70.96115 70.96116,-70.96115 39.19076,0 70.96116,31.77039 70.96116,70.96115 z"
       sodipodi:ry="70.961159"
       sodipodi:rx="70.961159"
       sodipodi:cy="281.479"
       sodipodi:cx="513.78882"
       id="path5104"
       style="fill:#000000;fill-opacity:1;stroke:none"
       sodipodi:type="arc" />
    <rect
       ry="0"
       rx="20.29637"
       y="384.69638"
       x="354.31226"
       height="71.144966"
       width="70.961182"
       id="rect5106"
       style="fill:#ffffff;fill-opacity:1;stroke:none" />
    <rect
       style="fill:#ffffff;fill-opacity:1;stroke:none"
       id="rect5108"
       width="70.969879"
       height="70.968185"
       x="283.34241"
       y="455.84134"
       rx="20.298857"
       ry="0" />
    <text
       xml:space="preserve"
       style="font-size:40px;font-style:normal;font-weight:normal;line-height:125%;letter-spacing:0px;word-spacing:0px;fill:#a8a8a8;fill-opacity:1;stroke:none;font-family:Sans"
       x="339"
       y="357.84134"
       id="text5110"
       sodipodi:linespacing="125%"><tspan
         sodipodi:role="line"
         id="tspan5112"
         x="339"
         y="357.84134">WALL</tspan></text>
    <rect
       ry="141.24164"
       y="153.00673"
       x="113.26279"
       height="388.15048"
       width="557.41425"
       id="rect5114"
       style="fill:none;stroke:#aaaaaa;stroke-width:2.11372066;stroke-linejoin:miter;stroke-miterlimit:4;stroke-opacity:1;stroke-dasharray:none" />
    <path
       transform="translate(71.01948,62.362323)"
       d="m 584.74998,281.479 c 0,39.19077 -31.7704,70.96116 -70.96116,70.96116 -39.19077,0 -70.96116,-31.77039 -70.96116,-70.96116 0,-39.19076 31.77039,-70.96115 70.96116,-70.96115 39.19076,0 70.96116,31.77039 70.96116,70.96115 z"
       sodipodi:ry="70.961159"
       sodipodi:rx="70.961159"
       sodipodi:cy="281.479"
       sodipodi:cx="513.78882"
       id="path3074"
       style="fill:#000000;fill-opacity:1;stroke:none"
       sodipodi:type="arc" />
    <rect
       ry="0"
       rx="20.29637"
       y="272.69434"
       x="513.78735"
       height="71.144966"
       width="70.961182"
       id="rect3076"
       style="fill:#ffffff;fill-opacity:1;stroke:none" />
    <rect
       style="fill:#ffffff;fill-opacity:1;stroke:none"
       id="rect3078"
       width="70.969879"
       height="70.968185"
       x="584.75403"
       y="343.84134"
       rx="20.298857"
       ry="0" />
  </g>
</svg>
